<svg id="Layer_1" data-name="Layer 1" xmlns="http://www.w3.org/2000/svg" width="8.95cm" height="1.36cm" viewBox="0 0 253.63 38.44">
  <title>logo-white</title>
  <polygon points="253.63 32.02 253.63 32.02 253.63 27.85 253.63 32.02" style="fill: #fff"/>
  <rect x="38.29" y="35.04" width="16.09" height="3.4" style="fill: #fff"/>
  <path d="M36,18l-2.22-3.21-1.09-1.7c-1.58-2.32-2-3.37-2-5.07,0-2,.63-3,1.87-3,1,0,1.68.71,1.87,2a19.48,19.48,0,0,1,.09,2.78h4.25V8.62A9.29,9.29,0,0,0,37.27,2.9,5.31,5.31,0,0,0,32.83,1c-4,0-6.45,2.62-6.45,6.83,0,2.73.89,5,3.54,9l2.18,3.26,1,1.32a8.58,8.58,0,0,1,1.71,4.84c0,2.12-.69,3.19-2.06,3.19a2.07,2.07,0,0,1-1.87-1.2A8.11,8.11,0,0,1,30.48,25v-1.3H26.23c0,.21,0,.39,0,.56,0,.44-.06.8-.06,1.17,0,2.88.32,4.13,1.41,5.61a5.89,5.89,0,0,0,5.18,2.35c4.13,0,6.4-2.33,6.4-6.55a12.72,12.72,0,0,0-.94-4.67A25.76,25.76,0,0,0,36,18" transform="translate(-1.17 -0.99)" style="fill: #fff"/>
  <path d="M170.71,1a6.23,6.23,0,0,0-5.23,2.59c-1,1.48-1,2-1,5.85V24.93c0,3.94.1,4.54,1,5.9a6.19,6.19,0,0,0,5.23,2.59,6,6,0,0,0,5.18-2.59c1-1.47,1-2,1-5.9V21.8h-4.39v5c0,1.83-.53,2.58-1.82,2.58s-1.87-.75-1.87-2.58V7.63c0-1.81.56-2.58,1.87-2.58s1.82.77,1.82,2.58v4h4.39V9.42c0-3.94-.1-4.49-1-5.85A6.13,6.13,0,0,0,170.71,1" transform="translate(-1.17 -0.99)" style="fill: #fff"/>
  <polygon points="184.44 17.49 188.79 17.49 188.79 13.43 184.44 13.43 184.44 4.54 190.68 4.54 190.68 0.48 180.09 0.48 180.09 31.96 191.06 31.96 191.06 27.9 184.44 27.9 184.44 17.49" style="fill: #fff"/>
  <path d="M82,16.4l0,0,0,0a4.71,4.71,0,0,0,1.88-1.83,11.41,11.41,0,0,0,.9-5.14c0-2.84-.6-4.7-1.93-6-1.73-1.64-2.58-1.88-6.46-1.88H72.45V32.95h4.37c3.57,0,5.63-.68,6.88-2.26s1.65-3.13,1.65-6.79c0-2.93-.22-4.22-.94-5.52a3.81,3.81,0,0,0-2.4-2M76.8,5.52h.69c2.42,0,3.05.83,3.05,4A12.52,12.52,0,0,1,80.3,13c-.39,1.06-1.25,1.53-2.82,1.53H76.8Zm3.6,22.22c-.58.81-1.49,1.15-3.14,1.15H76.8V18.62h.45c1.7,0,2.62.33,3.14,1.15s.62,1.68.62,4-.14,3.28-.62,4" transform="translate(-1.17 -0.99)" style="fill: #fff"/>
  <polygon points="92.67 17.49 97.02 17.49 97.02 13.43 92.67 13.43 92.67 4.54 98.91 4.54 98.91 0.48 88.32 0.48 88.32 31.96 99.29 31.96 99.29 27.9 92.67 27.9 92.67 17.49" style="fill: #fff"/>
  <path d="M109.18,1.46h-4.7V32.95h4.7c3,0,4.49-.44,5.75-1.74a7.32,7.32,0,0,0,2-5.47v-17a7.34,7.34,0,0,0-2-5.51c-1.37-1.32-2.76-1.74-5.75-1.74m3.38,24.28c0,2.41-.74,3.15-3.15,3.15h-.59V5.52h.59c2.38,0,3.15.78,3.15,3.19Z" transform="translate(-1.17 -0.99)" style="fill: #fff"/>
  <rect x="120.57" y="0.48" width="4.34" height="31.49" style="fill: #fff"/>
  <polygon points="134.68 17.49 139.03 17.49 139.03 13.43 134.68 13.43 134.68 4.54 140.92 4.54 140.92 0.48 130.33 0.48 130.33 31.96 141.3 31.96 141.3 27.9 134.68 27.9 134.68 17.49" style="fill: #fff"/>
  <rect x="16.8" y="0.48" width="4.34" height="31.49" style="fill: #fff"/>
  <polygon points="145.48 0.47 145.48 31.91 149.55 31.91 149.55 14.05 149.6 14.22 154.98 31.96 159.37 31.96 159.37 0.52 155.3 0.52 155.3 20.29 155.25 20.11 149.5 0.47 145.48 0.47" style="fill: #fff"/>
  <rect x="217.94" y="0.48" width="4.34" height="31.49" style="fill: #fff"/>
  <polygon points="232.56 21.76 229.85 0.57 225.69 0.57 230.39 31.96 234.79 31.96 239.49 0.57 235.34 0.57 232.59 21.96 232.56 21.76" style="fill: #fff"/>
  <path d="M61.94,1a6.23,6.23,0,0,0-5.23,2.59c-1,1.48-1,2-1,5.85V24.94c0,3.94.1,4.54,1,5.9a6.19,6.19,0,0,0,5.23,2.59,6,6,0,0,0,5.18-2.59c1-1.47,1-2,1-5.9V9.43c0-3.94-.1-4.49-1-5.85A6.14,6.14,0,0,0,61.94,1m1.82,25.79c0,1.83-.53,2.58-1.82,2.58s-1.87-.75-1.87-2.58V7.63c0-1.81.56-2.58,1.87-2.58s1.82.77,1.82,2.58Z" transform="translate(-1.17 -0.99)" style="fill: #fff"/>
  <polygon points="208.46 0.48 204.12 0.48 204.12 31.96 214.71 31.96 214.71 27.9 208.46 27.9 208.46 0.48" style="fill: #fff"/>
  <rect x="195.52" y="27.29" width="4.34" height="4.67" style="fill: #fff"/>
  <polygon points="246.69 17.49 251.04 17.49 251.04 13.43 246.69 13.43 246.69 4.54 252.93 4.54 252.93 0.48 242.35 0.48 242.35 31.96 253.31 31.96 253.31 27.9 246.69 27.9 246.69 17.49" style="fill: #fff"/>
  <path d="M11.62,31.21a7.32,7.32,0,0,0,2-5.47v-17a7.34,7.34,0,0,0-2-5.51C10.25,1.89,8.86,1.46,5.87,1.46H1.17V32.95h4.7c3,0,4.49-.44,5.75-1.74M5.51,5.52h.59c2.38,0,3.15.78,3.15,3.19v17c0,2.41-.73,3.15-3.15,3.15H5.51Z" transform="translate(-1.17 -0.99)" style="fill: #fff"/>
</svg>
